<svg width="512" height="512" xmlns="http://www.w3.org/2000/svg">
  <defs>
    <linearGradient id="bgGradient" x1="0%" y1="0%" x2="100%" y2="100%">
      <stop offset="0%" style="stop-color:#1a1a1a;stop-opacity:1" />
      <stop offset="100%" style="stop-color:#262626;stop-opacity:1" />
    </linearGradient>
    <linearGradient id="primaryGradient" x1="0%" y1="0%" x2="100%" y2="100%">
      <stop offset="0%" style="stop-color:#6BAEE8;stop-opacity:1" />
      <stop offset="100%" style="stop-color:#5B9FD8;stop-opacity:1" />
    </linearGradient>
    <linearGradient id="accentGradient" x1="0%" y1="0%" x2="0%" y2="100%">
      <stop offset="0%" style="stop-color:#D98FC8;stop-opacity:1" />
      <stop offset="100%" style="stop-color:#C97FB8;stop-opacity:1" />
    </linearGradient>
  </defs>
  
  <rect width="512" height="512" fill="url(#bgGradient)" rx="80"/>
  
  <circle cx="256" cy="200" r="60" fill="url(#primaryGradient)" opacity="0.9"/>
  <path d="M 256 200 L 180 380" stroke="url(#primaryGradient)" stroke-width="40" opacity="0.6" stroke-linecap="round"/>
  <path d="M 256 200 L 256 400" stroke="#ffffff" stroke-width="40" opacity="0.7" stroke-linecap="round"/>
  <path d="M 256 200 L 332 380" stroke="url(#accentGradient)" stroke-width="40" opacity="0.6" stroke-linecap="round"/>
  
  <circle cx="180" cy="380" r="30" fill="url(#primaryGradient)"/>
  <circle cx="256" cy="400" r="30" fill="#ffffff"/>
  <circle cx="332" cy="380" r="30" fill="url(#accentGradient)"/>
  
  <rect x="100" y="440" width="312" height="20" rx="10" fill="#333333"/>
  <rect x="140" y="447" width="80" height="6" rx="3" fill="url(#primaryGradient)"/>
  <rect x="240" y="447" width="60" height="6" rx="3" fill="#ffffff"/>
  <rect x="320" y="447" width="70" height="6" rx="3" fill="url(#accentGradient)"/>
</svg>
